HIERARCHY
ROOT Root
{
  OFFSET 21.0663 10.5272 4.55415
  CHANNELS 6 Xposition Yposition Zposition Zrotation Xrotation Yrotation
  JOINT Spine
  {
    OFFSET 5.3114 0 0
    CHANNELS 3 Zrotation Xrotation Yrotation
    JOINT Spine1
    {
      OFFSET 2.79004 0 0
      CHANNELS 3 Zrotation Xrotation Yrotation
      JOINT Neck
      {
        OFFSET 1.43377 0 0
        CHANNELS 3 Zrotation Xrotation Yrotation
        JOINT Head
        {
          OFFSET 1.86043 0 0
          CHANNELS 3 Zrotation Xrotation Yrotation
          End Site
          {
            OFFSET 0 0 0
          }
        }
      }
      JOINT LeftArm
      {
        OFFSET 0.0387506 0 2.55754
        CHANNELS 3 Zrotation Xrotation Yrotation
        JOINT LeftForeArm
        {
          OFFSET 4.24845 0 0
          CHANNELS 3 Zrotation Xrotation Yrotation
          JOINT LeftHand
          {
            OFFSET 4.01008 0 0
            CHANNELS 3 Zrotation Xrotation Yrotation
            End Site
            {
              OFFSET 0 0 0
            }
          }
        }
      }
      JOINT RightArm
      {
        OFFSET 0.0387506 0 -2.55754
        CHANNELS 3 Zrotation Xrotation Yrotation
        JOINT RightForeArm
        {
          OFFSET -4.24845 0 0
          CHANNELS 3 Zrotation Xrotation Yrotation
          JOINT RightHand
          {
            OFFSET -4.01009 0 0
            CHANNELS 3 Zrotation Xrotation Yrotation
            End Site
            {
              OFFSET 0 0 0
            }
          }
        }
      }
    }
  }
  JOINT LeftUpLeg
  {
    OFFSET -1.23318 0 2.05692
    CHANNELS 3 Zrotation Xrotation Yrotation
    JOINT LeftLeg
    {
      OFFSET 5.46397 0 0
      CHANNELS 3 Zrotation Xrotation Yrotation
      JOINT LeftFoot
      {
        OFFSET 4.68898 0 0
        CHANNELS 3 Zrotation Xrotation Yrotation
        End Site
        {
          OFFSET 0 0 0
        }
      }
    }
  }
  JOINT RightUpLeg
  {
    OFFSET -1.24454 0 -2.05007
    CHANNELS 3 Zrotation Xrotation Yrotation
    JOINT RightLeg
    {
      OFFSET -5.46397 0 0
      CHANNELS 3 Zrotation Xrotation Yrotation
      JOINT RightFoot
      {
        OFFSET -4.68901 0 0
        CHANNELS 3 Zrotation Xrotation Yrotation
        End Site
        {
          OFFSET 0 0 0
        }
      }
    }
  }
}
MOTION
Frames:	13
Frame Time:	0.0416667
16.4258 11.8601 4.45246 -98.7013 -8.74717 178.118 -4.80881 3.9043 1.24271 7.33 1.18582 1.08992 -17.3447 0.37105 -3.66407 35.3898 1.21957 0.511073 6.987 -31.0251 -170.391 25.6789 1.11349 14.8828 -1.16964 -13.1638 174.324 175.46 -38.935 -166.518 41.9931 5.29955 23.7538 1.00764 11.3679 174.356 -32.8615 -9.27523 -176.574 -26.2327 -0.562271 -1.0964 9.26451 -14.1417 178.855 171.3 -7.29188 178.78 -28.7421 -0.694075 -1.22437 3.98024 13.2497 176.542 
16.65 11.8784 4.30056 -98.4598 -7.89906 178.639 -4.59837 3.35536 0.240623 7.08176 1.02139 1.22274 -17.0195 0.389058 -3.82631 34.3013 1.27086 0.965817 8.25007 -29.9134 -169.874 25.2999 1.04843 14.6679 -1.19452 -13.4224 174.317 178.144 -38.1765 -167.646 40.5672 4.82767 23.0153 1.16278 13.0589 174.322 -31.7886 -7.63169 -177.027 -26.7625 -0.570738 -1.11799 8.57236 -13.6073 178.656 172.369 -7.94943 179.801 -29.9591 -0.689301 -1.25799 3.74734 12.2254 176.664 
16.8696 11.9182 4.15026 -98.4336 -7.36648 178.515 -4.5427 2.87099 -0.0120529 7.05426 0.898261 1.5224 -16.7726 0.279632 -4.28278 33.201 0.951455 1.38019 8.77038 -28.8607 -169.634 25.0296 1.00259 14.5146 -1.14335 -12.9494 174.328 -179.105 -34.7822 -168.64 38.1364 4.06962 21.7372 1.38941 15.4886 174.265 -31.0586 -6.43892 -177.123 -27.8084 -0.580578 -1.14838 8.51631 -12.7918 178.517 172.582 -8.38218 -179.613 -31.6357 -0.693777 -1.30343 1.91084 11.2331 177.016 
17.0754 11.9464 3.99926 -98.7321 -6.6221 178.466 -4.74675 2.6441 -0.311373 7.15917 0.845095 1.75505 -17.369 0.374211 -4.92105 33.4101 1.17034 2.34018 9.28063 -28.5018 -169.082 25.051 1.00626 14.5266 -1.1328 -12.8772 174.329 -176.596 -29.9445 -169.386 34.8584 3.14128 19.9784 1.56999 17.3886 174.215 -30.504 -5.15018 -177.265 -28.7967 -0.614251 -1.17718 10.0739 -12.0148 178.698 171.579 -8.10349 -178.559 -34.5961 -0.688873 -1.37133 -1.5593 10.5082 177.574 
17.253 11.9579 3.85554 -99.3549 -5.4153 178.585 -4.80209 2.63148 -0.646117 7.30971 0.854152 1.98738 -17.506 0.354473 -5.00127 31.8089 0.863191 2.12394 9.51413 -27.9135 -168.685 25.9774 1.16632 15.0517 -1.16716 -13.2381 174.32 -174.818 -24.7008 -169.45 31.1049 2.20938 17.9223 1.79743 19.7236 174.142 -30.3252 -4.13406 -177.579 -29.6695 -0.649709 -1.2033 11.8055 -11.5908 178.919 168.709 -7.43089 -177.17 -39.5951 -0.691556 -1.49329 -5.71252 9.74709 178.122 
17.4109 11.9572 3.73616 -99.9331 -4.11037 178.93 -4.48776 2.75913 -1.39136 6.94468 0.882614 2.08634 -17.2225 0.359069 -5.06628 29.9946 0.844669 2.56377 10.4139 -27.8333 -167.435 26.7613 1.308 15.4948 -1.2888 -14.4295 174.29 -173.191 -19.6831 -169.549 27.8993 1.52594 16.1351 2.09186 22.6466 174.036 -30.209 -3.31086 -178.045 -30.594 -0.701157 -1.23263 13.7715 -11.3909 179.23 165.248 -7.56505 -175.986 -45.0229 -0.693349 -1.64616 -8.54584 8.63269 178.335 
17.5706 11.9771 3.63021 -100.581 -3.16227 179.133 -4.33817 2.33004 -1.89308 6.99186 0.771583 2.33891 -17.2396 0.509579 -5.42356 28.4657 0.993218 2.89815 10.8589 -27.2013 -166.544 27.2542 1.4006 15.7726 -1.24513 -13.9775 174.301 -171.829 -15.9726 -168.954 25.6767 1.11316 14.8816 2.29522 24.5963 173.954 -29.8094 -2.17097 -178.304 -30.641 -0.728235 -1.23504 14.9354 -10.7775 179.326 161.965 -7.63424 -175.347 -49.3656 -0.765817 -1.77816 -4.795 7.07548 177.551 
17.7082 11.9854 3.54306 -101.189 -2.15592 178.902 -3.84962 1.82708 -1.78884 6.96048 0.626155 2.23897 -17.0467 0.631765 -5.336 26.639 1.15039 2.93151 10.9897 -26.6517 -165.163 27.1845 1.38726 15.7333 -1.24008 -13.8901 174.303 -170.938 -13.8252 -168.494 24.456 0.907563 14.1887 2.41652 25.7298 173.9 -29.9129 -1.80789 -178.161 -31.4091 -0.747132 -1.25612 15.9478 -10.9335 179.511 159.067 -7.6546 -175.621 -50.6489 -0.896656 -1.8202 2.64033 3.81944 176.642 
17.8532 11.9803 3.46278 -101.714 -1.55454 178.868 -3.48994 1.21616 -1.70778 6.81301 0.449035 2.18568 -16.9098 0.676699 -5.36629 25.8308 1.2013 3.00398 10.9885 -25.2627 -164.361 27.22 1.39405 15.7534 -1.22036 -13.6809 174.308 -169.458 -12.9535 -167.922 24.5923 0.930302 14.266 2.34449 25.121 173.931 -29.8758 -1.64042 -178.369 -32.2022 -0.773119 -1.27751 17.3848 -10.8531 179.716 156.871 -7.13957 -175.545 -48.6486 -0.978447 -1.75548 7.5702 2.3668 176.449 
18.0043 11.971 3.39855 -102.285 -0.763085 178.827 -3.30644 0.946185 -1.47704 6.80184 0.372037 2.13361 -16.7395 0.629936 -5.81979 24.8745 1.08574 3.76151 11.0687 -24.2313 -163.773 27.3525 1.41928 15.8279 -1.15119 -12.9932 174.324 -168.419 -12.7808 -167.164 24.6509 0.9398 14.2993 2.27463 24.4883 173.961 -30.1105 -1.38836 -178.397 -33.4667 -0.804836 -1.31032 19.0991 -10.8234 179.954 154.606 -6.23941 -175.551 -44.4671 -0.996043 -1.62904 9.77427 2.19377 176.394 
18.1477 11.9612 3.35763 -102.723 -0.0153781 178.915 -3.16152 0.610388 -1.35642 6.89013 0.254773 1.71931 -16.1123 0.738954 -5.3556 23.3022 1.30666 3.34781 11.8339 -23.4297 -162.769 27.7284 1.49182 16.0393 -1.16774 -13.1366 174.32 -168.187 -11.9741 -167.044 24.6028 0.931961 14.272 2.33128 24.9426 173.939 -29.972 -1.47566 -178.567 -34.2485 -0.836496 -1.33188 20.8272 -11.1638 -179.697 153.03 -5.93988 -175.571 -39.6473 -0.969918 -1.49485 10.7735 1.97952 176.393 
18.2852 11.9575 3.34051 -103.239 0.583259 179.024 -2.88735 0.852087 -1.54397 6.53452 0.359819 2.43158 -16.1251 0.607628 -5.8307 22.7322 0.933673 3.68475 12.3996 -23.3565 -162.624 27.6974 1.48593 16.0219 -1.15334 -12.9553 174.324 -168.134 -9.93495 -166.417 24.3149 0.885347 14.1083 2.35481 25.1557 173.929 -29.6619 -1.58208 -178.707 -34.3905 -0.846988 -1.33686 21.7241 -11.4872 -179.507 151.541 -7.07065 -175.802 -35.5264 -0.92206 -1.39106 10.9236 1.95131 176.376 
18.3921 11.9487 3.34487 -103.793 0.835821 179.177 -2.70193 0.88259 -1.59588 6.42905 0.368408 2.45296 -16.055 0.584139 -6.31505 21.9665 0.810154 4.23749 12.7789 -22.6654 -162.204 27.0397 1.35993 15.6517 -1.05473 -11.8863 174.347 -168.777 -8.59918 -166.125 23.7029 0.78938 13.7595 2.49232 26.4295 173.869 -29.6388 -1.06581 -178.668 -34.4955 -0.847167 -1.3419 22.0302 -11.4361 -179.524 150.372 -8.96612 -176.155 -32.7577 -0.873968 -1.32794 10.44 0.837015 176.563 
